# xmcd
#
# Track frame offsets:
#  150
#  17872
#  31302
#  46597
#  66207
#  79815
#  94387
#  114735
#  132562
#  152065
#
# Disc length: 2196 seconds
#
# Revision: 3
# Processed by: cddbd v1.5.1PL2 Copyright (c) Steve Scherf et al.
# Submitted via: Collectorz.com_Music_Collector 6.11
#
DISCID=8208920a
DTITLE=Daddy Mack Blues Band - Slow Ride
DYEAR=2006
DGENRE=Blues
TTITLE0=Slow Ride
TTITLE1=Whole Lotta Love
TTITLE2=After Midnight
TTITLE3=Lay Down Sally
TTITLE4=Can't Get Enough
TTITLE5=Honky Tonk Women
TTITLE6=Black Magic Woman
TTITLE7=You Really Got Me
TTITLE8=I'm Not Your Steppin Stone
TTITLE9=Get Back
EXTD=
EXTT0=
EXTT1=
EXTT2=
EXTT3=
EXTT4=
EXTT5=
EXTT6=
EXTT7=
EXTT8=
EXTT9=
PLAYORDER=
